<svg width="32" height="45" viewBox="0 0 32 45" fill="none" xmlns="http://www.w3.org/2000/svg">
<path d="M16.2099 15.3846C17.0675 15.3846 18.1426 14.8048 18.7827 14.0318C19.3625 13.3312 19.7853 12.3528 19.7853 11.3744C19.7853 11.2416 19.7732 11.1087 19.749 11C18.7948 11.0362 17.6473 11.6402 16.9588 12.4495C16.4153 13.0655 15.9201 14.0318 15.9201 15.0223C15.9201 15.1672 15.9442 15.3121 15.9563 15.3605C16.0167 15.3725 16.1133 15.3846 16.2099 15.3846ZM13.1902 30C14.3619 30 14.8813 29.2149 16.3428 29.2149C17.8285 29.2149 18.1546 29.9758 19.4592 29.9758C20.7395 29.9758 21.5971 28.7921 22.4064 27.6325C23.3123 26.3039 23.6867 24.9994 23.7109 24.939C23.6264 24.9148 21.1743 23.9123 21.1743 21.0979C21.1743 18.658 23.107 17.5588 23.2157 17.4743C21.9353 15.6383 19.9906 15.59 19.4592 15.59C18.0218 15.59 16.8501 16.4596 16.1133 16.4596C15.3161 16.4596 14.2653 15.6383 13.0211 15.6383C10.6537 15.6383 8.25 17.595 8.25 21.2912C8.25 23.5861 9.14383 26.014 10.243 27.5842C11.1852 28.9129 12.0065 30 13.1902 30Z" fill="white"/>
</svg>
