<svg width="24" height="25" viewBox="0 0 24 25" fill="none" xmlns="http://www.w3.org/2000/svg">
<path d="M22.207 3.32402C22.3025 3.23178 22.3787 3.12143 22.4311 2.99943C22.4835 2.87742 22.5111 2.74621 22.5123 2.61343C22.5134 2.48065 22.4881 2.34897 22.4378 2.22607C22.3875 2.10317 22.3133 1.99152 22.2194 1.89763C22.1255 1.80374 22.0138 1.72948 21.891 1.6792C21.7681 1.62892 21.6364 1.60362 21.5036 1.60477C21.3708 1.60593 21.2396 1.63351 21.1176 1.68592C20.9956 1.73833 20.8852 1.81451 20.793 1.91002L17.15 5.55302C15.621 4.86302 13.92 4.50002 12 4.50002C8.671 4.50002 5.996 5.59102 3.742 7.58902C2.846 8.38302 1.442 9.94202 0.361 12.042L0.125 12.5L0.361 12.958C1.443 15.058 2.846 16.617 3.742 17.411C4.02 17.657 4.304 17.89 4.595 18.108L1.793 20.91C1.69749 21.0023 1.62131 21.1126 1.5689 21.2346C1.51649 21.3566 1.4889 21.4878 1.48775 21.6206C1.4866 21.7534 1.5119 21.8851 1.56218 22.008C1.61246 22.1309 1.68671 22.2425 1.7806 22.3364C1.8745 22.4303 1.98615 22.5046 2.10905 22.5548C2.23194 22.6051 2.36362 22.6304 2.4964 22.6293C2.62918 22.6281 2.7604 22.6005 2.8824 22.5481C3.00441 22.4957 3.11475 22.4195 3.207 22.324L6.333 19.198L6.336 19.2L7.839 17.697L7.835 17.696L9.565 15.966L9.569 15.967L11.136 14.4H11.132L15.812 9.71902L15.813 9.72302L17.408 8.12802L17.406 8.12502L17.516 8.01602L17.518 8.01802L18.962 6.57402L18.959 6.57202L22.207 3.32402ZM14.884 7.82002L9.314 13.39C8.93144 13.0126 8.62814 12.5625 8.4219 12.0662C8.21566 11.5699 8.11064 11.0374 8.113 10.5C8.113 8.27002 9.874 6.50002 11.999 6.50002C13.136 6.50002 14.169 7.00602 14.883 7.81902L14.884 7.82002ZM7.9 14.804L6.027 16.677C5.69447 16.4401 5.37501 16.1854 5.07 15.914C4.396 15.318 3.3 14.121 2.387 12.5C3.3 10.88 4.397 9.68202 5.07 9.08602C5.589 8.62602 6.131 8.22302 6.704 7.88202C6.31422 8.69969 6.11229 9.5942 6.113 10.5C6.113 12.181 6.796 13.71 7.9 14.804ZM19.468 9.60402L20.883 8.18902C21.9822 9.33414 22.9104 10.6318 23.639 12.042L23.875 12.5L23.639 12.958C22.557 15.058 21.154 16.617 20.258 17.411C18.004 19.408 15.328 20.5 12 20.5C10.9632 20.5052 9.92947 20.3884 8.92 20.152L10.646 18.426C11.081 18.476 11.532 18.5 12 18.5C14.833 18.5 17.037 17.593 18.931 15.914C19.605 15.318 20.701 14.121 21.614 12.5C21.0218 11.4493 20.3009 10.4764 19.468 9.60402Z" fill="#6A6A6A"/>
<path d="M17.843 11.229C17.515 13.984 15.349 16.185 12.603 16.469L17.843 11.229Z" fill="#6A6A6A"/>
</svg>
