<svg width="450" height="35" viewBox="0 0 450 35" fill="none" xmlns="http://www.w3.org/2000/svg">
<rect x="0.5" y="13" width="194.906" height="1" stroke="#D9DADC"/>
<rect width="58.1719" height="2" transform="translate(195.906 16)" fill="white"/>
<path d="M225.563 16.9091C225.563 18.0194 225.352 18.964 224.931 19.7429C224.514 20.5218 223.944 21.1167 223.221 21.5277C222.502 21.9354 221.693 22.1392 220.795 22.1392C219.89 22.1392 219.078 21.9337 218.359 21.5227C217.64 21.1117 217.071 20.5168 216.654 19.7379C216.236 18.959 216.027 18.0161 216.027 16.9091C216.027 15.7988 216.236 14.8542 216.654 14.0753C217.071 13.2964 217.64 12.7031 218.359 12.2955C219.078 11.8845 219.89 11.679 220.795 11.679C221.693 11.679 222.502 11.8845 223.221 12.2955C223.944 12.7031 224.514 13.2964 224.931 14.0753C225.352 14.8542 225.563 15.7988 225.563 16.9091ZM223.38 16.9091C223.38 16.1899 223.273 15.5833 223.057 15.0895C222.845 14.5956 222.545 14.2211 222.157 13.9659C221.769 13.7107 221.315 13.5831 220.795 13.5831C220.275 13.5831 219.821 13.7107 219.433 13.9659C219.045 14.2211 218.743 14.5956 218.528 15.0895C218.316 15.5833 218.21 16.1899 218.21 16.9091C218.21 17.6283 218.316 18.2348 218.528 18.7287C218.743 19.2225 219.045 19.5971 219.433 19.8523C219.821 20.1075 220.275 20.2351 220.795 20.2351C221.315 20.2351 221.769 20.1075 222.157 19.8523C222.545 19.5971 222.845 19.2225 223.057 18.7287C223.273 18.2348 223.38 17.6283 223.38 16.9091ZM227.157 22V11.8182H231.174C231.943 11.8182 232.6 11.9557 233.143 12.2308C233.69 12.5026 234.106 12.8887 234.391 13.3892C234.679 13.8864 234.824 14.4714 234.824 15.1442C234.824 15.8203 234.678 16.402 234.386 16.8892C234.094 17.3731 233.672 17.7443 233.118 18.0028C232.568 18.2614 231.902 18.3906 231.12 18.3906H228.43V16.6605H230.772C231.183 16.6605 231.524 16.6042 231.796 16.4915C232.068 16.3788 232.27 16.2098 232.402 15.9844C232.538 15.759 232.606 15.4789 232.606 15.1442C232.606 14.8061 232.538 14.5211 232.402 14.2891C232.27 14.0571 232.066 13.8814 231.791 13.7621C231.519 13.6394 231.176 13.5781 230.762 13.5781H229.31V22H227.157ZM232.656 17.3665L235.187 22H232.81L230.334 17.3665H232.656Z" fill="black"/>
<rect x="254.578" y="13" width="194.906" height="1" stroke="#D9DADC"/>
</svg>
